g Cube_fracturepart24
v -0.1414361 0.2294645 0.08727741
v 0.149801 0.2294645 0.08727741
v 0.149801 -0.2294645 0.08727741
v 0.007103761 -0.2162775 0.08727741
v -0.149801 0.03590141 0.08727741
v 0.01594516 -0.2167008 -0.08727741
v 0.149801 -0.2290708 -0.08727741
v 0.149801 0.2294645 -0.08727741
v -0.1412418 0.2294645 -0.08727741
v -0.1490621 0.04850061 -0.08727741
v 0.007103761 -0.2162775 0.08727741
v 0.149801 -0.2294645 0.08727741
v 0.149801 -0.2290708 -0.08727741
v 0.01594516 -0.2167008 -0.08727741
v -0.1414361 0.2294645 0.08727741
v -0.1412418 0.2294645 -0.08727741
v 0.149801 0.2294645 -0.08727741
v 0.149801 0.2294645 0.08727741
v -0.1490621 0.04850061 -0.08727741
v -0.1412418 0.2294645 -0.08727741
v -0.1414361 0.2294645 0.08727741
v -0.149801 0.03590141 0.08727741
v 0.01594516 -0.2167008 -0.08727741
v 0.007103761 -0.2162775 0.08727741
v 0.149801 -0.2290708 -0.08727741
v 0.149801 -0.2294645 0.08727741
v 0.149801 0.2294645 0.08727741
v 0.149801 0.2294645 -0.08727741
vt 0.8173828 0.9956055
vt 0.9970703 0.9956055
vt 0.9970703 0.6918945
vt 0.9091797 0.7006836
vt 0.8120117 0.8671875
vt 0.4628906 0.7001953
vt 0.3803711 0.6923828
vt 0.3803711 0.9956055
vt 0.5600586 0.9956055
vt 0.5644531 0.8759766
vt 0.1084595 0.9213867
vt 0.1088867 0.9213867
vt 0.1088867 0.9208984
vt 0.1084595 0.9208984
vt 0.855957 0.8876953
vt 0.855957 0.9682617
vt 1.036133 0.9682617
vt 1.036133 0.8876953
vt 0.1090698 0.9208984
vt 0.1096191 0.9208984
vt 0.1096191 0.9213867
vt 0.1090698 0.9213867
vt 0.1082764 0.9208984
vt 0.1082764 0.9213867
vt 0.3642578 0.6918945
vt 0.1975098 0.6914063
vt 0.1975098 0.9951172
vt 0.3642578 0.9951172
vn 0 0 1
vn 0 0 1
vn 0 0 1
vn 0 0 1
vn 0 0 1
vn 0 0 -1
vn 0 0 -1
vn 0 0 -1
vn 0 0 -1
vn 0 0 -1
vn -0.09204102 -0.9956055 -0.002246857
vn -0.09204102 -0.9956055 -0.002246857
vn -0.09204102 -0.9956055 -0.002246857
vn -0.09204102 -0.9956055 -0.002246857
vn 0 1 0
vn 0 1 0
vn 0 1 0
vn 0 1 0
vn -0.9667969 -0.2536621 -0.0223999
vn -0.9990234 0.04318237 -0.001112938
vn -0.9990234 0.04318237 -0.001112938
vn -0.9667969 -0.2536621 -0.0223999
vn -0.8481445 -0.527832 -0.04168701
vn -0.8481445 -0.527832 -0.04168701
vn 1 0 0
vn 1 0 0
vn 1 0 0
vn 1 0 0
g Cube_fracturepart24_0
f 3/3/3 2/2/2 1/1/1
f 1/1/1 4/4/4 3/3/3
f 1/1/1 5/5/5 4/4/4
f 8/8/8 7/7/7 6/6/6
f 6/6/6 9/9/9 8/8/8
f 6/6/6 10/10/10 9/9/9
f 13/13/13 12/12/12 11/11/11
f 14/14/14 13/13/13 11/11/11
f 17/17/17 16/16/16 15/15/15
f 18/18/18 17/17/17 15/15/15
f 21/21/21 20/20/20 19/19/19
f 22/22/22 21/21/21 19/19/19
f 22/22/22 19/19/19 23/23/23
f 24/24/24 22/22/22 23/23/23
f 27/27/27 26/26/26 25/25/25
f 28/28/28 27/27/27 25/25/25
