g Cube_fracturepart1
v -0.1509037 0.0178069 -0.08727741
v 0.07262702 0.158758 -0.08727741
v 0.08292949 0.1164777 0.08727741
v -0.1376739 -0.02262751 0.08727741
v 0.08292949 0.1164777 0.08727741
v 0.1507829 -0.158758 0.08727741
v -0.09398687 -0.158758 0.08727741
v -0.1376739 -0.02262751 0.08727741
v -0.09424049 -0.158758 -0.08727741
v -0.09398687 -0.158758 0.08727741
v 0.1507829 -0.158758 0.08727741
v 0.1509037 -0.158758 -0.08727741
v 0.07262702 0.158758 -0.08727741
v 0.1509037 -0.158758 -0.08727741
v 0.1507829 -0.158758 0.08727741
v 0.08292949 0.1164777 0.08727741
v -0.1376739 -0.02262751 0.08727741
v -0.09398687 -0.158758 0.08727741
v -0.09424049 -0.158758 -0.08727741
v -0.1509037 0.0178069 -0.08727741
v -0.1509037 0.0178069 -0.08727741
v -0.09424049 -0.158758 -0.08727741
v 0.1509037 -0.158758 -0.08727741
v 0.07262702 0.158758 -0.08727741
vt 0.1072388 0.9208984
vt 0.1079102 0.9208984
vt 0.1079712 0.9213867
vt 0.1072998 0.9213867
vt 0.8120117 0.1855469
vt 0.8540039 0.003507614
vt 0.703125 0.003507614
vt 0.6762695 0.09350586
vt 0.1074219 0.9189453
vt 0.1074219 0.9233398
vt 0.1085815 0.9233398
vt 0.1085815 0.9189453
vt 0.1060181 0.9208984
vt 0.1050415 0.9208984
vt 0.1050415 0.9213867
vt 0.105896 0.9213867
vt 0.1054688 0.9213867
vt 0.1050415 0.9213867
vt 0.1050415 0.9208984
vt 0.1055908 0.9208984
vt 0.7094727 0.1202393
vt 0.6743164 0.003507614
vt 0.5234375 0.003507614
vt 0.5717773 0.213501
vn -0.519043 0.8232422 0.2299805
vn -0.519043 0.8232422 0.2299805
vn -0.519043 0.8232422 0.2299805
vn -0.519043 0.8232422 0.2299805
vn 0 0 1
vn 0 0 1
vn 0 0 1
vn 0 0 1
vn 0 -1 0
vn 0 -1 0
vn 0 -1 0
vn 0 -1 0
vn 0.9707031 0.2393799 0.0006718636
vn 0.9707031 0.2393799 0.0006718636
vn 0.9707031 0.2393799 0.0006718636
vn 0.9707031 0.2393799 0.0006718636
vn -0.9521484 -0.3056641 0.001383781
vn -0.9521484 -0.3056641 0.001383781
vn -0.9521484 -0.3056641 0.001383781
vn -0.9521484 -0.3056641 0.001383781
vn 0 0 -1
vn 0 0 -1
vn 0 0 -1
vn 0 0 -1
g Cube_fracturepart1_0
f 3/3/3 2/2/2 1/1/1
f 4/4/4 3/3/3 1/1/1
f 7/7/7 6/6/6 5/5/5
f 8/8/8 7/7/7 5/5/5
f 11/11/11 10/10/10 9/9/9
f 12/12/12 11/11/11 9/9/9
f 15/15/15 14/14/14 13/13/13
f 16/16/16 15/15/15 13/13/13
f 19/19/19 18/18/18 17/17/17
f 20/20/20 19/19/19 17/17/17
f 23/23/23 22/22/22 21/21/21
f 24/24/24 23/23/23 21/21/21
